<?xml version="1.0" encoding="UTF-8" standalone="no"?>
<svg
   version="1.1"
   id="svg2"
   xml:space="preserve"
   width="130.77333"
   height="161.90947"
   viewBox="0 0 130.77333 161.90947"
   sodipodi:docname="closed-trashcan.svg"
   inkscape:version="1.1.1 (eb90963e84, 2021-10-02)"
   xmlns:inkscape="http://www.inkscape.org/namespaces/inkscape"
   xmlns:sodipodi="http://sodipodi.sourceforge.net/DTD/sodipodi-0.dtd"
   xmlns="http://www.w3.org/2000/svg"
   xmlns:svg="http://www.w3.org/2000/svg"
   xmlns:rdf="http://www.w3.org/1999/02/22-rdf-syntax-ns#"
   xmlns:cc="http://creativecommons.org/ns#"
   xmlns:dc="http://purl.org/dc/elements/1.1/"><metadata
     id="metadata8"><rdf:RDF><cc:Work
         rdf:about=""><dc:format>image/svg+xml</dc:format><dc:type
           rdf:resource="http://purl.org/dc/dcmitype/StillImage" /></cc:Work></rdf:RDF></metadata><defs
     id="defs6" /><sodipodi:namedview
     pagecolor="#ffffff"
     bordercolor="#666666"
     borderopacity="1"
     objecttolerance="10"
     gridtolerance="10"
     guidetolerance="10"
     inkscape:pageopacity="0"
     inkscape:pageshadow="2"
     inkscape:window-width="1920"
     inkscape:window-height="956"
     id="namedview4"
     inkscape:pagecheckerboard="0"
     showgrid="false"
     inkscape:zoom="1.8243356"
     inkscape:cx="-19.459139"
     inkscape:cy="74.273615"
     inkscape:window-x="1920"
     inkscape:window-y="27"
     inkscape:window-maximized="1"
     inkscape:current-layer="g10"
     fit-margin-top="0"
     fit-margin-left="0"
     fit-margin-right="0"
     fit-margin-bottom="0" /><g
     id="g10"
     inkscape:groupmode="layer"
     inkscape:label="ink_ext_XXXXXX"
     transform="matrix(1.3333333,0,0,-1.3333333,-189.59276,216.63097)"><g
       id="g834"><path
         d="M 157.39857,124.80523 V 57.463423 c 0,-4.381301 3.563,-7.945301 7.945,-7.945301 h 51.782 c 4.381,0 7.945,3.564 7.945,7.945301 v 67.341807 z m 59.727,-83.764107 h -51.782 c -9.055,0 -16.422,7.3672 -16.422,16.4223 v 71.579807 c 0,2.341 1.898,4.239 4.239,4.239 h 76.148 c 2.341,0 4.238,-1.898 4.238,-4.239 V 57.463423 c 0,-9.055101 -7.366,-16.422301 -16.421,-16.422301"
         style="fill:#100f0d;fill-opacity:1;fill-rule:nonzero;stroke:none;stroke-width:0.1"
         id="path16" /><path
         d="m 150.67157,133.28223 h 81.125 v 1.726 c 0,3.332 -2.71,6.043 -6.042,6.043 h -69.041 c -3.332,0 -6.042,-2.711 -6.042,-6.043 z m 85.365,-8.477 h -89.604 c -2.34,0 -4.238,1.898 -4.238,4.238 v 5.965 c 0,8.006 6.513,14.519 14.519,14.519 h 69.041 c 8.007,0 14.52,-6.513 14.52,-14.519 v -5.965 c 0,-2.34 -1.899,-4.238 -4.238,-4.238"
         style="fill:#100f0d;fill-opacity:1;fill-rule:nonzero;stroke:none;stroke-width:0.1"
         id="path18" /><path
         d="m 179.99957,149.52723 h 22.47 c -0.157,2.49 -2.234,4.468 -4.762,4.468 h -12.946 c -2.528,0 -4.605,-1.978 -4.762,-4.468 z m 26.718,-8.476 h -30.967 c -2.34,0 -4.238,1.897 -4.238,4.238 v 3.934 c 0,7.305 5.944,13.25 13.249,13.25 h 12.946 c 7.305,0 13.249,-5.945 13.249,-13.25 v -3.934 c 0,-2.341 -1.898,-4.238 -4.239,-4.238"
         style="fill:#100f0d;fill-opacity:1;fill-rule:nonzero;stroke:none;stroke-width:0.1"
         id="path20" /><path
         d="m 173.93157,62.670023 c -2.34,0 -4.238,1.8981 -4.238,4.2383 v 39.111897 c 0,2.341 1.898,4.23901 4.238,4.23901 2.341,0 4.238,-1.89801 4.238,-4.23901 V 66.908323 c 0,-2.3402 -1.897,-4.2383 -4.238,-4.2383"
         style="fill:#100f0d;fill-opacity:1;fill-rule:nonzero;stroke:none;stroke-width:0.1"
         id="path22" /><path
         d="m 191.23457,62.670023 c -2.341,0 -4.238,1.8981 -4.238,4.2383 v 39.111897 c 0,2.341 1.897,4.23901 4.238,4.23901 2.341,0 4.238,-1.89801 4.238,-4.23901 V 66.908323 c 0,-2.3402 -1.897,-4.2383 -4.238,-4.2383"
         style="fill:#100f0d;fill-opacity:1;fill-rule:nonzero;stroke:none;stroke-width:0.1"
         id="path24" /><path
         d="m 208.53757,62.670023 c -2.341,0 -4.239,1.8981 -4.239,4.2383 v 39.111897 c 0,2.341 1.898,4.23901 4.239,4.23901 2.339,0 4.238,-1.89801 4.238,-4.23901 V 66.908323 c 0,-2.3402 -1.899,-4.2383 -4.238,-4.2383"
         style="fill:#100f0d;fill-opacity:1;fill-rule:nonzero;stroke:none;stroke-width:0.1"
         id="path26" /></g></g></svg>
