<?xml version="1.0" encoding="UTF-8" standalone="no"?>
<svg
   version="1.1"
   id="svg2"
   xml:space="preserve"
   width="132.41158"
   height="199.95511"
   viewBox="0 0 132.41157 199.95511"
   sodipodi:docname="opened-trashcan.svg"
   inkscape:version="1.1.1 (eb90963e84, 2021-10-02)"
   xmlns:inkscape="http://www.inkscape.org/namespaces/inkscape"
   xmlns:sodipodi="http://sodipodi.sourceforge.net/DTD/sodipodi-0.dtd"
   xmlns="http://www.w3.org/2000/svg"
   xmlns:svg="http://www.w3.org/2000/svg"
   xmlns:rdf="http://www.w3.org/1999/02/22-rdf-syntax-ns#"
   xmlns:cc="http://creativecommons.org/ns#"
   xmlns:dc="http://purl.org/dc/elements/1.1/"><metadata
     id="metadata8"><rdf:RDF><cc:Work
         rdf:about=""><dc:format>image/svg+xml</dc:format><dc:type
           rdf:resource="http://purl.org/dc/dcmitype/StillImage" /></cc:Work></rdf:RDF></metadata><defs
     id="defs6" /><sodipodi:namedview
     pagecolor="#ffffff"
     bordercolor="#666666"
     borderopacity="1"
     objecttolerance="10"
     gridtolerance="10"
     guidetolerance="10"
     inkscape:pageopacity="0"
     inkscape:pageshadow="2"
     inkscape:window-width="1920"
     inkscape:window-height="956"
     id="namedview4"
     inkscape:pagecheckerboard="0"
     showgrid="false"
     fit-margin-top="0"
     fit-margin-left="0"
     fit-margin-right="0"
     fit-margin-bottom="0"
     inkscape:zoom="2.5800001"
     inkscape:cx="97.480616"
     inkscape:cy="81.589144"
     inkscape:window-x="1920"
     inkscape:window-y="27"
     inkscape:window-maximized="1"
     inkscape:current-layer="g10" /><g
     id="g10"
     inkscape:groupmode="layer"
     inkscape:label="ink_ext_XXXXXX"
     transform="matrix(1.3333333,0,0,-1.3333333,-76.835342,229.00628)"><path
       d="m 141.28256,108.38028 -8.6355,-70.123901 c -0.5415,-4.5641 -4.3993,-7.9922 -8.9774,-7.9922 h -39.4021 c -4.576,0 -8.434,3.4281 -8.974,7.9742 l -8.637,70.141901 z m -57.015,-86.591901 h 39.4021 c 8.8711,0 16.3488,6.643 17.393,15.452 l 9.2183,74.859901 c 0.1493,1.205 -0.2261,2.416 -1.0316,3.326 -0.8035,0.909 -1.9598,1.43 -3.1746,1.43 h -84.2102 c -1.215,0 -2.371,-0.521 -3.175,-1.43 -0.805,-0.91 -1.18,-2.121 -1.031,-3.326 l 9.22,-74.879101 c 1.043,-8.791 8.519,-15.4328 17.389,-15.4328"
       style="fill:#100f0d;fill-opacity:1;fill-rule:nonzero;stroke:none;stroke-width:0.1"
       id="path28" /><path
       d="m 77.44356,157.22328 65.0906,-17.851 c 2.0722,-0.569 3.7992,-1.91 4.8625,-3.778 1.0261,-1.802 1.3156,-3.886 0.8246,-5.892 l -80.6027,22.106 c 1.262,4.147 5.617,6.568 9.825,5.415 z m 73.7472,-36.969 c 0.7297,0 1.4527,0.188 2.0977,0.556 0.9777,0.557 1.6929,1.478 1.9898,2.563 l 1.0605,3.869 c 1.1684,4.256 0.6083,8.712 -1.5761,12.547 -2.184,3.835 -5.7305,6.59 -9.9871,7.757 l -65.091,17.852 v 0 c -8.779,2.408 -17.894,-2.778 -20.304,-11.563 l -1.06,-3.872 c -0.619,-2.258 0.709,-4.589 2.966,-5.208 l 88.7839,-24.35 c 0.368,-0.101 0.7449,-0.151 1.1203,-0.151"
       style="fill:#100f0d;fill-opacity:1;fill-rule:nonzero;stroke:none;stroke-width:0.1"
       id="path30" /><path
       d="m 103.96956,39.183279 c 1.755,0 3.178,1.4231 3.178,3.1782 v 54.9638 c 0,1.756 -1.423,3.179001 -3.178,3.179001 -1.756,0 -3.179,-1.423001 -3.179,-3.179001 v -54.9638 c 0,-1.7551 1.423,-3.1782 3.179,-3.1782"
       style="fill:#100f0d;fill-opacity:1;fill-rule:nonzero;stroke:none;stroke-width:0.1"
       id="path32" /><path
       d="m 121.35016,39.183279 c 1.6422,0 3.034,1.2629 3.1652,2.9282 l 4.3449,54.9638 c 0.1387,1.75 -1.1679,3.280001 -2.9179,3.419001 -1.7465,0.135 -3.2813,-1.168001 -3.4192,-2.918001 l -4.3445,-54.964 c -0.1387,-1.75 1.168,-3.2809 2.918,-3.42 0.0847,-0.0058 0.1699,-0.009 0.2535,-0.009"
       style="fill:#100f0d;fill-opacity:1;fill-rule:nonzero;stroke:none;stroke-width:0.1"
       id="path34" /><path
       d="m 86.58956,39.183279 c 0.083,0 0.168,0.0032 0.253,0.009 1.75,0.1391 3.057,1.67 2.918,3.42 l -4.345,54.964 c -0.137,1.75 -1.665,3.053001 -3.419,2.918001 -1.75,-0.139 -3.056,-1.669001 -2.918,-3.419001 l 4.345,-54.9638 c 0.132,-1.6653 1.524,-2.9282 3.166,-2.9282"
       style="fill:#100f0d;fill-opacity:1;fill-rule:nonzero;stroke:none;stroke-width:0.1"
       id="path36" /><path
       d="m 106.38056,163.27528 c 0.298,0 0.601,-0.039 0.902,-0.121 l 12.6129,-3.459 c 1.8148,-0.499 2.8867,-2.38 2.3891,-4.196 l -0.4555,-1.66 -19.1965,5.266 0.455,1.659 c 0.415,1.515 1.793,2.511 3.293,2.511 z m 18.4153,-18.883 c 0.7297,0 1.4531,0.189 2.0976,0.556 0.9766,0.557 1.693,1.478 1.9899,2.562 l 1.5762,5.748 c 1.7335,6.322 -1.9997,12.877 -8.3219,14.612 l -12.6141,3.459 c -6.321,1.736 -12.877,-1.999 -14.611,-8.323 l -1.577,-5.746 c -0.297,-1.085 -0.152,-2.243 0.405,-3.219 0.556,-0.977 1.478,-1.693 2.562,-1.99 l 27.3726,-7.507 c 0.3683,-0.102 0.7453,-0.152 1.1207,-0.152"
       style="fill:#100f0d;fill-opacity:1;fill-rule:nonzero;stroke:none;stroke-width:0.1"
       id="path38" /></g></svg>
